<mxfile host="Electron" agent="Mozilla/5.0 (Macintosh; Intel Mac OS X 10_15_7) AppleWebKit/537.36 (KHTML, like Gecko) draw.io/24.7.8 Chrome/128.0.6613.36 Electron/32.0.1 Safari/537.36" version="24.7.8">
  <diagram name="Page-1" id="7e0a89b8-554c-2b80-1dc8-d5c74ca68de4">
    <mxGraphModel dx="1656" dy="1209" grid="0" gridSize="10" guides="1" tooltips="1" connect="1" arrows="1" fold="1" page="1" pageScale="1" pageWidth="1100" pageHeight="850" background="none" math="0" shadow="0">
      <root>
        <mxCell id="0" />
        <mxCell id="1" parent="0" />
        <mxCell id="J3vJoi93nIFXIHI57L2h-1" value="RPi Pico W" style="shadow=0;dashed=0;align=center;html=1;strokeWidth=1;shape=mxgraph.electrical.logic_gates.dual_inline_ic;labelNames=GP0,GP1,GND,GP2,GP3,GP4,GP5,GND,GP6,GP7,GP8,GP9,GND,GP10,GP11,GP12,GP13,GND,GP14,GP15,GP16,GP17,GND,GP18,GP19,GP20,GP21,GND,GP22,RUN,GP26,GP27,AGND,GP28_A2,ADC_VREF,3V3,3V3_EN,GND,VSYS,VBUS;whiteSpace=wrap;pinLabelType=cust;labelCount=40;" vertex="1" parent="1">
          <mxGeometry x="224" y="198" width="178" height="400" as="geometry" />
        </mxCell>
        <mxCell id="J3vJoi93nIFXIHI57L2h-11" value="" style="edgeStyle=orthogonalEdgeStyle;rounded=0;orthogonalLoop=1;jettySize=auto;html=1;endArrow=none;endFill=0;" edge="1" parent="1" source="J3vJoi93nIFXIHI57L2h-3" target="J3vJoi93nIFXIHI57L2h-10">
          <mxGeometry relative="1" as="geometry" />
        </mxCell>
        <mxCell id="J3vJoi93nIFXIHI57L2h-3" value="330&amp;nbsp;&lt;b&gt;Ω&lt;/b&gt;" style="verticalLabelPosition=bottom;shadow=0;dashed=0;align=center;html=1;verticalAlign=top;strokeWidth=1;shape=mxgraph.electrical.resistors.resistor_2;rounded=1;comic=0;labelBackgroundColor=none;fontFamily=Verdana;fontSize=12" vertex="1" parent="1">
          <mxGeometry x="452" y="458" width="100" height="20" as="geometry" />
        </mxCell>
        <mxCell id="J3vJoi93nIFXIHI57L2h-4" style="edgeStyle=orthogonalEdgeStyle;rounded=0;orthogonalLoop=1;jettySize=auto;html=1;exitX=1;exitY=0;exitDx=0;exitDy=270;exitPerimeter=0;entryX=0;entryY=0.5;entryDx=0;entryDy=0;entryPerimeter=0;endArrow=none;endFill=0;" edge="1" parent="1" source="J3vJoi93nIFXIHI57L2h-1" target="J3vJoi93nIFXIHI57L2h-3">
          <mxGeometry relative="1" as="geometry" />
        </mxCell>
        <mxCell id="J3vJoi93nIFXIHI57L2h-17" style="edgeStyle=orthogonalEdgeStyle;rounded=0;orthogonalLoop=1;jettySize=auto;html=1;exitX=1;exitY=0.5;exitDx=0;exitDy=0;exitPerimeter=0;" edge="1" parent="1" source="J3vJoi93nIFXIHI57L2h-10">
          <mxGeometry relative="1" as="geometry">
            <mxPoint x="772" y="467.8823529411766" as="targetPoint" />
          </mxGeometry>
        </mxCell>
        <mxCell id="J3vJoi93nIFXIHI57L2h-10" value="100&amp;nbsp;&lt;b&gt;Ω&lt;/b&gt;" style="verticalLabelPosition=bottom;shadow=0;dashed=0;align=center;html=1;verticalAlign=top;strokeWidth=1;shape=mxgraph.electrical.resistors.resistor_2;rounded=1;comic=0;labelBackgroundColor=none;fontFamily=Verdana;fontSize=12" vertex="1" parent="1">
          <mxGeometry x="632" y="458" width="100" height="20" as="geometry" />
        </mxCell>
        <mxCell id="J3vJoi93nIFXIHI57L2h-14" style="edgeStyle=orthogonalEdgeStyle;rounded=0;orthogonalLoop=1;jettySize=auto;html=1;exitX=0;exitY=0.5;exitDx=0;exitDy=0;exitPerimeter=0;endArrow=none;endFill=0;" edge="1" parent="1" source="J3vJoi93nIFXIHI57L2h-12">
          <mxGeometry relative="1" as="geometry">
            <mxPoint x="586.9473684210527" y="468" as="targetPoint" />
          </mxGeometry>
        </mxCell>
        <mxCell id="J3vJoi93nIFXIHI57L2h-12" value="100 nF" style="pointerEvents=1;verticalLabelPosition=bottom;shadow=0;dashed=0;align=center;html=1;verticalAlign=top;shape=mxgraph.electrical.capacitors.capacitor_1;rotation=90;" vertex="1" parent="1">
          <mxGeometry x="542" y="503" width="90" height="30" as="geometry" />
        </mxCell>
        <mxCell id="J3vJoi93nIFXIHI57L2h-16" style="edgeStyle=orthogonalEdgeStyle;rounded=0;orthogonalLoop=1;jettySize=auto;html=1;exitX=0;exitY=0.5;exitDx=0;exitDy=0;exitPerimeter=0;endArrow=none;endFill=0;" edge="1" parent="1" source="J3vJoi93nIFXIHI57L2h-15">
          <mxGeometry relative="1" as="geometry">
            <mxPoint x="736.9473684210527" y="468" as="targetPoint" />
          </mxGeometry>
        </mxCell>
        <mxCell id="J3vJoi93nIFXIHI57L2h-15" value="100 nF" style="pointerEvents=1;verticalLabelPosition=bottom;shadow=0;dashed=0;align=center;html=1;verticalAlign=top;shape=mxgraph.electrical.capacitors.capacitor_1;rotation=90;" vertex="1" parent="1">
          <mxGeometry x="692" y="503" width="90" height="30" as="geometry" />
        </mxCell>
        <mxCell id="J3vJoi93nIFXIHI57L2h-19" value="" style="pointerEvents=1;verticalLabelPosition=bottom;shadow=0;dashed=0;align=center;html=1;verticalAlign=top;shape=mxgraph.electrical.signal_sources.vss2;fontSize=24;flipV=1;" vertex="1" parent="1">
          <mxGeometry x="569.5" y="558" width="35" height="30" as="geometry" />
        </mxCell>
        <mxCell id="J3vJoi93nIFXIHI57L2h-20" value="" style="pointerEvents=1;verticalLabelPosition=bottom;shadow=0;dashed=0;align=center;html=1;verticalAlign=top;shape=mxgraph.electrical.signal_sources.vss2;fontSize=24;flipV=1;" vertex="1" parent="1">
          <mxGeometry x="719.5" y="558" width="35" height="30" as="geometry" />
        </mxCell>
        <mxCell id="J3vJoi93nIFXIHI57L2h-21" value="" style="pointerEvents=1;verticalLabelPosition=bottom;shadow=0;dashed=0;align=center;html=1;verticalAlign=top;shape=mxgraph.electrical.signal_sources.vss2;fontSize=24;flipV=1;" vertex="1" parent="1">
          <mxGeometry x="457" y="268" width="35" height="30" as="geometry" />
        </mxCell>
        <mxCell id="J3vJoi93nIFXIHI57L2h-22" style="edgeStyle=orthogonalEdgeStyle;rounded=0;orthogonalLoop=1;jettySize=auto;html=1;exitX=0.5;exitY=1;exitDx=0;exitDy=0;exitPerimeter=0;entryX=1;entryY=0;entryDx=0;entryDy=50;entryPerimeter=0;endArrow=none;endFill=0;" edge="1" parent="1" source="J3vJoi93nIFXIHI57L2h-21" target="J3vJoi93nIFXIHI57L2h-1">
          <mxGeometry relative="1" as="geometry" />
        </mxCell>
        <mxCell id="J3vJoi93nIFXIHI57L2h-23" value="USB Power" style="rounded=0;whiteSpace=wrap;html=1;" vertex="1" parent="1">
          <mxGeometry x="265.5" y="169" width="95" height="29" as="geometry" />
        </mxCell>
        <mxCell id="J3vJoi93nIFXIHI57L2h-24" value="" style="pointerEvents=1;verticalLabelPosition=bottom;shadow=0;dashed=0;align=center;html=1;verticalAlign=top;shape=mxgraph.electrical.waveforms.sine_wave;" vertex="1" parent="1">
          <mxGeometry x="786" y="436.82000000000005" width="90" height="66.18" as="geometry" />
        </mxCell>
      </root>
    </mxGraphModel>
  </diagram>
</mxfile>
